<svg width="678" height="91.5" viewBox="0 0 678 91.5" xmlns="http://www.w3.org/2000/svg"><g id="svgGroup" stroke-linecap="round" fill-rule="evenodd" font-size="9pt" stroke="#333333" stroke-width="0.25mm" fill="#333333" style="stroke:#333333;stroke-width:0.25mm;fill:#333333"><path d="M 661.1 19.9 Q 657 19.9 653.65 21.65 Q 650.3 23.4 648.4 26.5 A 12.613 12.613 0 0 0 647.28 28.831 A 13.705 13.705 0 0 0 646.5 33.5 A 15.531 15.531 0 0 0 646.797 36.617 A 11.007 11.007 0 0 0 648.3 40.4 Q 650.1 43.2 652.9 45.05 Q 655.7 46.9 658.85 48.35 Q 662 49.8 664.8 51.25 Q 667.6 52.7 669.4 54.5 A 5.979 5.979 0 0 1 670.791 56.631 A 6.653 6.653 0 0 1 671.2 59 A 6.693 6.693 0 0 1 670.297 62.449 A 7.641 7.641 0 0 1 668.5 64.5 A 9.434 9.434 0 0 1 664.855 66.323 A 12.567 12.567 0 0 1 661.7 66.7 A 14.135 14.135 0 0 1 661.081 66.687 A 11.382 11.382 0 0 1 654.7 64.5 A 8.154 8.154 0 0 1 651.829 60.549 A 12.486 12.486 0 0 1 651.2 57.7 L 644.8 59.1 Q 645.3 63 647.65 66.15 A 16.527 16.527 0 0 0 647.949 66.539 A 16.832 16.832 0 0 0 653.7 71.15 Q 657.4 73 661.7 73 Q 666.3 73 669.95 71.15 A 17.453 17.453 0 0 0 670.73 70.73 A 14.546 14.546 0 0 0 675.7 66.15 A 12.372 12.372 0 0 0 676.852 63.991 A 12.989 12.989 0 0 0 677.8 59 A 19.035 19.035 0 0 0 677.794 58.529 Q 677.754 56.896 677.43 55.492 A 10.542 10.542 0 0 0 676 52.05 Q 674.2 49.3 671.4 47.4 Q 668.6 45.5 665.45 44.05 Q 662.3 42.6 659.5 41.2 Q 656.7 39.8 654.9 38 A 5.979 5.979 0 0 1 653.509 35.869 A 6.653 6.653 0 0 1 653.1 33.5 A 8.615 8.615 0 0 1 653.109 33.105 A 6.659 6.659 0 0 1 655.4 28.25 A 7.812 7.812 0 0 1 658.245 26.621 A 9.318 9.318 0 0 1 661.1 26.2 A 14.303 14.303 0 0 1 661.963 26.226 A 11.502 11.502 0 0 1 668.1 28.35 Q 670.119 29.797 671.005 32.398 A 12.91 12.91 0 0 1 671.6 35.2 L 678 33.8 Q 677.5 29.8 675.15 26.7 Q 672.8 23.6 669.15 21.75 A 16.684 16.684 0 0 0 666.796 20.774 A 18.191 18.191 0 0 0 661.1 19.9 Z M 350.5 57.6 L 343.9 57.6 L 343.9 1.4 L 350.5 1.5 L 350.5 57.6 Z M 141.2 71.5 L 134.6 71.5 L 134.6 15.5 L 141.2 15.5 L 141.2 71.5 Z M 80.4 76.5 L 98.7 21.5 L 105.3 21.5 L 87 76.5 M 224.2 71.5 L 217.6 71.5 L 234.2 21.5 L 240.8 21.5 L 224.2 71.5 Z M 224.1 71.5 L 217.5 71.5 L 200.9 21.5 L 207.5 21.5 L 224.1 71.5 Z M 86.1 64.3 L 82.6 73.4 L 65.3 21.5 L 71.9 21.5 L 86.1 64.3 Z M 186.8 50 L 186.8 36.4 L 190.6 36.4 L 190.6 50 Q 190.6 56.8 188.5 62 A 23.042 23.042 0 0 1 186.366 66.11 A 17.115 17.115 0 0 1 182.75 70.1 Q 179.1 73 174.3 73 Q 170 73 166.35 70.9 Q 162.7 68.8 160.5 65.15 A 15.424 15.424 0 0 1 158.302 57.28 A 18.249 18.249 0 0 1 158.3 57 A 16.002 16.002 0 0 1 159.012 52.157 A 14.056 14.056 0 0 1 160.55 48.85 Q 162.8 45.3 166.65 43.2 A 17.34 17.34 0 0 1 173.823 41.151 A 20.984 20.984 0 0 1 175.3 41.1 M 6.6 71.5 L 0 71.5 L 0 21.5 L 6.6 21.5 L 6.6 71.5 Z M 295.6 71.5 L 289 71.5 L 289 21.5 L 295.6 21.5 L 295.6 71.5 Z M 327.6 71.5 L 321 71.5 L 321 21.5 L 327.6 21.5 L 327.6 71.5 Z M 437.4 71.5 L 430.8 71.5 L 430.8 21.5 L 437.4 21.5 L 437.4 71.5 Z M 548.3 71.5 L 541.7 71.5 L 541.7 21.5 L 548.3 21.5 L 548.3 71.5 Z M 561.3 21.5 L 567.9 21.5 L 567.9 71.5 L 561.3 71.5 L 561.3 21.5 Z M 251.9 38 L 245.3 38 A 20.566 20.566 0 0 1 245.935 32.8 A 17.26 17.26 0 0 1 247.55 28.75 Q 249.8 24.7 253.65 22.35 A 16.148 16.148 0 0 1 261.191 20.037 A 19.655 19.655 0 0 1 262.4 20 A 17.463 17.463 0 0 1 267.849 20.829 A 15.608 15.608 0 0 1 271.15 22.35 Q 275 24.7 277.25 28.75 Q 279.5 32.8 279.5 38 L 272.9 38 A 18.291 18.291 0 0 0 272.604 34.601 Q 272.244 32.7 271.447 31.205 A 9.287 9.287 0 0 0 270.15 29.35 A 8.962 8.962 0 0 0 265.238 26.583 A 13.471 13.471 0 0 0 262.4 26.3 A 12.692 12.692 0 0 0 259.149 26.694 A 9.042 9.042 0 0 0 254.7 29.35 A 9.961 9.961 0 0 0 252.516 33.308 Q 252.059 34.841 251.941 36.683 A 20.632 20.632 0 0 0 251.9 38 Z M 245.3 55 L 251.9 55 Q 251.9 60.5 254.7 63.6 A 9.199 9.199 0 0 0 260.15 66.518 A 13.347 13.347 0 0 0 262.4 66.7 A 12.957 12.957 0 0 0 265.572 66.334 A 8.857 8.857 0 0 0 270.15 63.6 Q 272.627 60.808 272.873 56.069 A 20.621 20.621 0 0 0 272.9 55 L 279.5 55 A 20.566 20.566 0 0 1 278.865 60.2 A 17.26 17.26 0 0 1 277.25 64.25 Q 275 68.3 271.15 70.65 A 16.148 16.148 0 0 1 263.609 72.963 A 19.655 19.655 0 0 1 262.4 73 A 17.463 17.463 0 0 1 256.951 72.172 A 15.608 15.608 0 0 1 253.65 70.65 Q 249.8 68.3 247.55 64.25 Q 245.3 60.2 245.3 55 Z M 595.6 56.5 A 18.498 18.498 0 0 1 594.877 61.746 A 16.184 16.184 0 0 1 593.55 64.95 Q 591.5 68.7 587.95 70.85 A 14.952 14.952 0 0 1 581.01 72.966 A 18.13 18.13 0 0 1 579.9 73 A 16.099 16.099 0 0 1 574.784 72.207 A 14.467 14.467 0 0 1 571.85 70.85 Q 568.3 68.7 566.2 64.95 A 16.589 16.589 0 0 1 564.151 57.946 A 20.1 20.1 0 0 1 564.1 56.5 L 567.9 56.5 A 10.082 10.082 0 0 0 568.559 60.202 A 9.197 9.197 0 0 0 570.9 63.6 A 10.309 10.309 0 0 0 576.966 66.317 A 13.867 13.867 0 0 0 578.5 66.4 A 11.897 11.897 0 0 0 582.27 65.825 A 10.057 10.057 0 0 0 586 63.6 Q 589 60.8 589 56.5 L 595.6 56.5 Z M 595.6 36.5 A 20.499 20.499 0 0 0 595.539 34.912 A 16.852 16.852 0 0 0 593.55 28.05 Q 591.5 24.3 587.95 22.15 A 14.467 14.467 0 0 0 585.016 20.793 A 16.099 16.099 0 0 0 579.9 20 A 18.13 18.13 0 0 0 578.79 20.034 A 14.952 14.952 0 0 0 571.85 22.15 Q 568.3 24.3 566.2 28.05 A 15.972 15.972 0 0 0 564.84 31.254 A 18.087 18.087 0 0 0 564.1 36.5 L 567.9 36.5 Q 567.9 32.2 570.9 29.4 A 10.024 10.024 0 0 1 574.842 27.117 A 12.392 12.392 0 0 1 578.5 26.6 A 13.665 13.665 0 0 1 579.534 26.638 A 10.329 10.329 0 0 1 586 29.4 A 9.197 9.197 0 0 1 588.341 32.798 A 10.082 10.082 0 0 1 589 36.5 M 32.2 36.5 A 21.726 21.726 0 0 0 32.096 34.349 A 17.677 17.677 0 0 0 30.3 28.05 A 17.379 17.379 0 0 0 30.18 27.817 A 14.738 14.738 0 0 0 25.05 22.15 A 13.457 13.457 0 0 0 22.986 21.063 A 14.033 14.033 0 0 0 17.5 20 A 16.335 16.335 0 0 0 17.369 20.001 A 13.652 13.652 0 0 0 9.95 22.15 A 14.719 14.719 0 0 0 8.176 23.486 A 15.564 15.564 0 0 0 4.65 28.05 Q 2.7 31.8 2.7 36.5 L 6.6 36.5 Q 6.6 32.2 9.35 29.4 A 9.349 9.349 0 0 1 11.996 27.486 A 9.399 9.399 0 0 1 16.1 26.6 A 11.818 11.818 0 0 1 16.355 26.603 A 9.003 9.003 0 0 1 22.9 29.4 A 9.288 9.288 0 0 1 25.083 33.026 A 11.214 11.214 0 0 1 25.6 36.5 M 298 22.65 Q 300.9 20.5 304.5 20.5 L 304.1 27.1 L 304.5 20.5 Q 300.9 20.5 298 22.65 A 13.414 13.414 0 0 0 295.472 25.108 A 16.429 16.429 0 0 0 293.4 28.55 A 18.297 18.297 0 0 0 292.208 32.144 A 22.329 22.329 0 0 0 291.7 37 L 295.6 37 A 13.502 13.502 0 0 1 295.769 34.821 A 9.835 9.835 0 0 1 298 29.9 A 7.997 7.997 0 0 1 300.583 27.867 A 7.948 7.948 0 0 1 304.1 27.1 A 8.155 8.155 0 0 1 305.539 27.232 A 10.351 10.351 0 0 1 307.25 27.7 Q 307.998 27.972 308.612 28.326 A 6.155 6.155 0 0 1 309.9 29.3 L 312.5 23.5 Q 310.9 22.2 308.85 21.35 Q 306.8 20.5 304.5 20.5 M 439.8 22.65 Q 442.7 20.5 446.3 20.5 L 445.9 27.1 L 446.3 20.5 Q 442.7 20.5 439.8 22.65 A 13.414 13.414 0 0 0 437.272 25.108 A 16.429 16.429 0 0 0 435.2 28.55 A 18.297 18.297 0 0 0 434.008 32.144 A 22.329 22.329 0 0 0 433.5 37 L 437.4 37 A 13.502 13.502 0 0 1 437.569 34.821 A 9.835 9.835 0 0 1 439.8 29.9 A 7.997 7.997 0 0 1 442.383 27.867 A 7.948 7.948 0 0 1 445.9 27.1 A 8.155 8.155 0 0 1 447.339 27.232 A 10.351 10.351 0 0 1 449.05 27.7 Q 449.798 27.972 450.412 28.326 A 6.155 6.155 0 0 1 451.7 29.3 L 454.3 23.5 Q 452.7 22.2 450.65 21.35 Q 448.6 20.5 446.3 20.5 M 32.2 71.5 L 25.6 71.5 L 25.6 36.5 L 32.2 36.5 L 32.2 71.5 Z M 57.8 71.5 L 51.2 71.5 L 51.2 36.5 L 57.8 36.5 L 57.8 71.5 Z M 193.4 71.5 L 186.8 71.5 L 186.8 36.5 L 193.4 36.5 L 193.4 71.5 Z M 403.3 48.8 L 369.7 48.8 L 369.7 43.1 L 403.3 43.1 L 403.3 48.8 Z M 490.5 48.8 L 456.9 48.8 L 456.9 43.1 L 490.5 43.1 L 490.5 48.8 Z M 637.8 48.8 L 604.2 48.8 L 604.2 43.1 L 637.8 43.1 L 637.8 48.8 Z M 186.8 36.5 A 10.592 10.592 0 0 0 186.141 32.705 A 9.571 9.571 0 0 0 183.8 29.2 A 10.217 10.217 0 0 0 176.994 26.318 A 13.442 13.442 0 0 0 176.3 26.3 A 12.566 12.566 0 0 0 172.224 26.943 A 11.183 11.183 0 0 0 169.3 28.45 A 7.876 7.876 0 0 0 166.527 32.134 Q 166.055 33.362 165.852 34.865 A 15.676 15.676 0 0 0 165.8 35.3 L 159.4 33.9 Q 159.9 29.9 162.25 26.8 A 16.867 16.867 0 0 1 167.843 22.086 A 19.593 19.593 0 0 1 168.3 21.85 Q 172 20 176.3 20 M 153.8 27.5 L 128.8 27.5 L 128.8 21.5 L 153.8 21.5 L 153.8 27.5 Z M 363.1 27.5 L 338.1 27.5 L 338.1 21.5 L 363.1 21.5 L 363.1 27.5 Z M 369.1 38 A 20.566 20.566 0 0 1 369.735 32.8 A 17.26 17.26 0 0 1 371.35 28.75 Q 373.6 24.7 377.45 22.35 A 16.148 16.148 0 0 1 384.991 20.037 A 19.655 19.655 0 0 1 386.2 20 A 19.096 19.096 0 0 1 391.38 20.68 A 16.361 16.361 0 0 1 394.95 22.15 Q 398.8 24.3 401.05 28.05 Q 403.3 31.8 403.3 36.5 L 396.7 36.5 M 456.3 38 A 20.566 20.566 0 0 1 456.935 32.8 A 17.26 17.26 0 0 1 458.55 28.75 Q 460.8 24.7 464.65 22.35 A 16.148 16.148 0 0 1 472.191 20.037 A 19.655 19.655 0 0 1 473.4 20 A 19.096 19.096 0 0 1 478.58 20.68 A 16.361 16.361 0 0 1 482.15 22.15 Q 486 24.3 488.25 28.05 Q 490.5 31.8 490.5 36.5 L 483.9 36.5 M 603.6 38 A 20.566 20.566 0 0 1 604.235 32.8 A 17.26 17.26 0 0 1 605.85 28.75 Q 608.1 24.7 611.95 22.35 A 16.148 16.148 0 0 1 619.491 20.037 A 19.655 19.655 0 0 1 620.7 20 A 19.096 19.096 0 0 1 625.88 20.68 A 16.361 16.361 0 0 1 629.45 22.15 Q 633.3 24.3 635.55 28.05 Q 637.8 31.8 637.8 36.5 L 631.2 36.5 M 57.8 36.5 A 21.726 21.726 0 0 0 57.696 34.349 A 17.677 17.677 0 0 0 55.9 28.05 A 17.379 17.379 0 0 0 55.78 27.817 A 14.738 14.738 0 0 0 50.65 22.15 A 13.457 13.457 0 0 0 48.586 21.063 A 14.033 14.033 0 0 0 43.1 20 A 16.335 16.335 0 0 0 42.969 20.001 A 13.652 13.652 0 0 0 35.55 22.15 A 14.719 14.719 0 0 0 33.776 23.486 A 15.564 15.564 0 0 0 30.25 28.05 Q 28.3 31.8 28.3 36.5 L 32.2 36.5 L 25.6 36.5 M 505.1 37.9 L 498.5 37.9 A 20.566 20.566 0 0 1 499.135 32.7 A 17.26 17.26 0 0 1 500.75 28.65 Q 503 24.6 506.85 22.25 A 16.148 16.148 0 0 1 514.391 19.937 A 19.655 19.655 0 0 1 515.6 19.9 L 515.6 26.2 A 12.692 12.692 0 0 0 512.349 26.594 A 9.042 9.042 0 0 0 507.9 29.25 A 9.961 9.961 0 0 0 505.716 33.208 Q 505.259 34.741 505.141 36.583 A 20.632 20.632 0 0 0 505.1 37.9 Z M 369.1 55.1 L 375.7 55.1 Q 375.7 60.6 378.5 63.7 A 9.199 9.199 0 0 0 383.95 66.618 A 13.347 13.347 0 0 0 386.2 66.8 L 386.2 73.1 A 17.463 17.463 0 0 1 380.751 72.272 A 15.608 15.608 0 0 1 377.45 70.75 Q 373.6 68.4 371.35 64.35 Q 369.1 60.3 369.1 55.1 Z M 456.3 55.1 L 462.9 55.1 Q 462.9 60.6 465.7 63.7 A 9.199 9.199 0 0 0 471.15 66.618 A 13.347 13.347 0 0 0 473.4 66.8 L 473.4 73.1 A 17.463 17.463 0 0 1 467.951 72.272 A 15.608 15.608 0 0 1 464.65 70.75 Q 460.8 68.4 458.55 64.35 Q 456.3 60.3 456.3 55.1 Z M 498.5 55.1 L 505.1 55.1 Q 505.1 60.6 507.9 63.7 A 9.199 9.199 0 0 0 513.35 66.618 A 13.347 13.347 0 0 0 515.6 66.8 L 515.6 73.1 A 17.463 17.463 0 0 1 510.151 72.272 A 15.608 15.608 0 0 1 506.85 70.75 Q 503 68.4 500.75 64.35 Q 498.5 60.3 498.5 55.1 Z M 603.6 55.1 L 610.2 55.1 Q 610.2 60.6 613 63.7 A 9.199 9.199 0 0 0 618.45 66.618 A 13.347 13.347 0 0 0 620.7 66.8 L 620.7 73.1 A 17.463 17.463 0 0 1 615.251 72.272 A 15.608 15.608 0 0 1 611.95 70.75 Q 608.1 68.4 605.85 64.35 Q 603.6 60.3 603.6 55.1 Z M 561.3 91.5 L 561.3 71.4 L 567.9 71.4 L 567.9 91.5 L 561.3 91.5 Z M 589 36.5 L 595.6 36.5 L 595.6 56.5 L 589 56.5 L 589 36.5 Z M 532.4 33.8 L 526 35.2 A 12.91 12.91 0 0 0 525.405 32.398 Q 524.519 29.797 522.5 28.35 A 11.502 11.502 0 0 0 516.363 26.226 A 14.303 14.303 0 0 0 515.5 26.2 L 515.5 19.9 A 18.191 18.191 0 0 1 521.196 20.774 A 16.684 16.684 0 0 1 523.55 21.75 Q 527.2 23.6 529.55 26.7 Q 531.9 29.8 532.4 33.8 Z M 526 57.8 L 532.4 59.2 Q 531.9 63.1 529.55 66.25 Q 527.2 69.4 523.55 71.25 A 17.33 17.33 0 0 1 516.335 73.083 A 20.436 20.436 0 0 1 515.5 73.1 L 515.5 66.8 A 12.262 12.262 0 0 0 519.684 66.104 A 11.099 11.099 0 0 0 522.5 64.6 A 8.146 8.146 0 0 0 525.361 60.679 Q 525.824 59.391 525.997 57.825 A 15.606 15.606 0 0 0 526 57.8 Z M 396.9 57.8 L 403.3 59.2 Q 402.8 63.1 400.45 66.25 Q 398.1 69.4 394.45 71.25 A 17.33 17.33 0 0 1 387.235 73.083 A 20.436 20.436 0 0 1 386.4 73.1 L 386.4 66.8 A 12.262 12.262 0 0 0 390.584 66.104 A 11.099 11.099 0 0 0 393.4 64.6 A 8.146 8.146 0 0 0 396.261 60.679 Q 396.724 59.391 396.897 57.825 A 15.606 15.606 0 0 0 396.9 57.8 Z M 484.1 57.8 L 490.5 59.2 Q 490 63.1 487.65 66.25 Q 485.3 69.4 481.65 71.25 A 17.33 17.33 0 0 1 474.435 73.083 A 20.436 20.436 0 0 1 473.6 73.1 L 473.6 66.8 A 12.262 12.262 0 0 0 477.784 66.104 A 11.099 11.099 0 0 0 480.6 64.6 A 8.146 8.146 0 0 0 483.461 60.679 Q 483.924 59.391 484.097 57.825 A 15.606 15.606 0 0 0 484.1 57.8 Z M 631.4 57.8 L 637.8 59.2 Q 637.3 63.1 634.95 66.25 Q 632.6 69.4 628.95 71.25 A 17.33 17.33 0 0 1 621.735 73.083 A 20.436 20.436 0 0 1 620.9 73.1 L 620.9 66.8 A 12.262 12.262 0 0 0 625.084 66.104 A 11.099 11.099 0 0 0 627.9 64.6 A 8.146 8.146 0 0 0 630.761 60.679 Q 631.224 59.391 631.397 57.825 A 15.606 15.606 0 0 0 631.4 57.8 Z M 505.1 55.2 L 498.5 55.2 L 498.5 37.8 L 505.1 37.8 L 505.1 55.2 Z M 279.5 55.1 L 272.9 55.1 L 272.9 37.9 L 279.5 37.9 L 279.5 55.1 Z M 251.9 55.1 L 245.3 55.1 L 245.3 37.9 L 251.9 37.9 L 251.9 55.1 Z M 375.7 55.1 L 369.1 55.1 L 369.1 38 L 375.7 38 L 375.7 55.1 Z M 462.9 55.1 L 456.3 55.1 L 456.3 38 L 462.9 38 L 462.9 55.1 Z M 610.2 55.1 L 603.6 55.1 L 603.6 38 L 610.2 38 L 610.2 55.1 Z M 80.4 76.5 A 29.091 29.091 0 0 1 80.179 77.162 Q 79.162 80.09 77.811 81.854 A 7.661 7.661 0 0 1 76 83.6 A 6.917 6.917 0 0 1 72.074 84.757 Q 70.857 84.757 69.5 84.4 L 68.2 90.2 A 17.918 17.918 0 0 0 69.587 90.517 Q 75.036 91.532 79.3 88.6 Q 82.675 86.28 85.111 81.24 A 38.847 38.847 0 0 0 87 76.5 M 175.3 41.1 L 175.3 47.1 L 192.1 47.1 L 192.1 41.1 L 175.3 41.1 Z M 357.5 66.7 A 7.819 7.819 0 0 1 356.314 66.613 A 5.909 5.909 0 0 1 353.75 65.6 A 6.365 6.365 0 0 1 352.291 64.151 A 8.175 8.175 0 0 1 351.35 62.45 A 9.261 9.261 0 0 1 351.137 61.883 Q 350.5 60.01 350.5 57.5 L 343.9 57.5 A 27.854 27.854 0 0 0 343.965 59.43 Q 344.377 65.359 347.4 68.9 A 11.173 11.173 0 0 0 352.791 72.423 A 14.599 14.599 0 0 0 357 73 M 186.8 50 A 36.254 36.254 0 0 1 186.791 50.832 Q 186.74 53.054 186.413 55.009 A 20.834 20.834 0 0 1 185.3 59.15 A 15.666 15.666 0 0 1 183.937 61.876 A 11.307 11.307 0 0 1 181.05 65 A 10.085 10.085 0 0 1 177.534 66.624 A 13.266 13.266 0 0 1 174.3 67 A 8.459 8.459 0 0 1 170.272 65.995 A 10.712 10.712 0 0 1 167.8 64.15 A 9.439 9.439 0 0 1 165.559 60.769 A 10.456 10.456 0 0 1 164.9 57 M 375.7 38 A 20.632 20.632 0 0 1 375.741 36.683 Q 375.859 34.841 376.316 33.308 A 9.961 9.961 0 0 1 378.5 29.35 A 9.042 9.042 0 0 1 382.949 26.694 A 12.692 12.692 0 0 1 386.2 26.3 A 13.442 13.442 0 0 1 386.894 26.318 A 10.217 10.217 0 0 1 393.7 29.2 A 9.571 9.571 0 0 1 396.041 32.705 A 10.592 10.592 0 0 1 396.7 36.5 M 462.9 38 A 20.632 20.632 0 0 1 462.941 36.683 Q 463.059 34.841 463.516 33.308 A 9.961 9.961 0 0 1 465.7 29.35 A 9.042 9.042 0 0 1 470.149 26.694 A 12.692 12.692 0 0 1 473.4 26.3 A 13.442 13.442 0 0 1 474.094 26.318 A 10.217 10.217 0 0 1 480.9 29.2 A 9.571 9.571 0 0 1 483.241 32.705 A 10.592 10.592 0 0 1 483.9 36.5 M 610.2 38 A 20.632 20.632 0 0 1 610.241 36.683 Q 610.359 34.841 610.816 33.308 A 9.961 9.961 0 0 1 613 29.35 A 9.042 9.042 0 0 1 617.449 26.694 A 12.692 12.692 0 0 1 620.7 26.3 A 13.442 13.442 0 0 1 621.394 26.318 A 10.217 10.217 0 0 1 628.2 29.2 A 9.571 9.571 0 0 1 630.541 32.705 A 10.592 10.592 0 0 1 631.2 36.5 M 176.3 20 A 19.096 19.096 0 0 1 181.48 20.68 A 16.361 16.361 0 0 1 185.05 22.15 Q 188.9 24.3 191.15 28.05 Q 193.4 31.8 193.4 36.5 L 186.8 36.5 M 322.457 14.582 A 5.175 5.175 0 0 0 324.3 14.9 Q 326.4 14.9 327.85 13.5 A 4.651 4.651 0 0 0 328.943 11.911 A 4.987 4.987 0 0 0 329.3 10 A 6.039 6.039 0 0 0 329.3 9.935 A 4.819 4.819 0 0 0 327.85 6.45 A 4.933 4.933 0 0 0 326.443 5.452 A 5.009 5.009 0 0 0 324.3 5 Q 322.2 5 320.8 6.45 Q 319.4 7.9 319.4 10 A 6.2 6.2 0 0 0 319.401 10.135 A 4.723 4.723 0 0 0 320.8 13.5 A 4.651 4.651 0 0 0 322.457 14.582 Z M 543.157 14.582 A 5.175 5.175 0 0 0 545 14.9 Q 547.1 14.9 548.55 13.5 A 4.651 4.651 0 0 0 549.643 11.911 A 4.987 4.987 0 0 0 550 10 A 6.039 6.039 0 0 0 550 9.935 A 4.819 4.819 0 0 0 548.55 6.45 A 4.933 4.933 0 0 0 547.143 5.452 A 5.009 5.009 0 0 0 545 5 Q 542.9 5 541.5 6.45 Q 540.1 7.9 540.1 10 A 6.2 6.2 0 0 0 540.101 10.135 A 4.723 4.723 0 0 0 541.5 13.5 A 4.651 4.651 0 0 0 543.157 14.582 Z M 51.2 36.5 A 11.214 11.214 0 0 0 50.683 33.026 A 9.288 9.288 0 0 0 48.5 29.4 A 9.003 9.003 0 0 0 41.955 26.603 A 11.818 11.818 0 0 0 41.7 26.6 A 9.399 9.399 0 0 0 37.596 27.486 A 9.349 9.349 0 0 0 34.95 29.4 Q 32.2 32.2 32.2 36.5 M 403.3 43.1 L 396.7 43.1 L 396.7 36.5 L 403.3 36.5 L 403.3 43.1 Z M 490.5 43.1 L 483.9 43.1 L 483.9 36.5 L 490.5 36.5 L 490.5 43.1 Z M 637.8 43.1 L 631.2 43.1 L 631.2 36.5 L 637.8 36.5 L 637.8 43.1 Z M 134.6 15.5 A 24.626 24.626 0 0 1 134.977 11.054 Q 135.447 8.495 136.504 6.473 A 12.694 12.694 0 0 1 138.1 4.1 A 11.455 11.455 0 0 1 145.68 0.121 A 16.327 16.327 0 0 1 147.7 0 M 192.1 41.1 L 175.3 41.1 L 175.3 47.1 M 147.7 0 Q 149.9 0 152.05 0.7 Q 154.2 1.4 155.8 2.8 L 152.9 8 A 10.539 10.539 0 0 0 151.364 7.065 A 9.167 9.167 0 0 0 150.65 6.75 Q 149.5 6.3 148.2 6.3 M 357.5 66.7 Q 358.8 66.7 359.95 66.2 Q 361.1 65.7 362.2 65 L 365.1 70.2 A 11.902 11.902 0 0 1 362.28 71.889 A 14.111 14.111 0 0 1 361.35 72.25 Q 359.2 73 357 73 M 148.2 6.3 A 7.331 7.331 0 0 0 146.34 6.526 A 5.748 5.748 0 0 0 144.45 7.4 A 6.541 6.541 0 0 0 142.65 9.361 A 8.626 8.626 0 0 0 142.05 10.55 Q 141.2 12.6 141.2 15.5 L 134.6 15.5 M 175.3 47.1 A 11.409 11.409 0 0 0 171.366 47.757 A 10.119 10.119 0 0 0 167.9 49.9 Q 164.9 52.7 164.9 57 M 579.9 73 L 578.5 66.4 L 579.9 73 Z M 17.5 20 L 16.1 26.6 L 17.5 20 Z M 43.1 20 L 41.7 26.6 L 43.1 20 Z M 578.5 26.6 L 579.9 20 L 578.5 26.6 Z M 386.5 73.1 L 386.1 73.1 L 386.1 66.8 L 386.5 66.8 L 386.5 73.1 Z M 473.7 73.1 L 473.3 73.1 L 473.3 66.8 L 473.7 66.8 L 473.7 73.1 Z M 621 73.1 L 620.6 73.1 L 620.6 66.8 L 621 66.8 L 621 73.1 Z M 262.6 73 L 262.2 73 L 262.2 66.7 L 262.6 66.7 L 262.6 73 Z M 262.6 26.3 L 262.2 26.3 L 262.2 20 L 262.6 20 L 262.6 26.3 Z M 80.4 76.5 L 87 76.5 L 80.4 76.5 Z M 158.3 57 L 164.9 57 L 158.3 57 Z M 653.1 33.5 L 646.5 33.5 L 647.15 33.5 L 648.8 33.5 L 650.8 33.5 L 652.45 33.5 L 653.1 33.5 Z M 671.2 59 L 677.8 59 L 677.15 59 L 675.5 59 L 673.5 59 L 671.85 59 L 671.2 59 Z M 357.5 66.7 L 357 73 L 357.5 66.7 Z M 147.7 0 L 148.2 6.3 L 147.7 0 Z M 262.4 66.7 L 262.4 73 L 262.4 66.7 Z M 661.7 73 L 661.7 66.7 L 661.7 73 Z M 176.3 26.3 L 176.3 20 L 176.3 26.3 Z M 262.4 20 L 262.4 26.3 L 262.4 20 Z M 386.2 26.3 L 386.2 20 L 386.2 26.3 Z M 473.4 26.3 L 473.4 20 L 473.4 26.3 Z M 620.7 26.3 L 620.7 20 L 620.7 26.3 Z M 661.1 19.9 L 661.1 26.2 L 661.1 19.9 Z M 174.3 73 L 174.3 67 L 174.3 73 Z M 186.8 50 L 190.6 50 L 186.8 50 Z M 57.8 36.5 51.2 36.5 M 375.7 38 369.1 38 M 462.9 38 456.3 38 M 595.6 36.5 589 36.5 M 610.2 38 603.6 38" vector-effect="non-scaling-stroke"/></g></svg>